<?xml version="1.0" standalone="no"?>
<!DOCTYPE svg PUBLIC "-//W3C//DTD SVG 20010904//EN"
 "http://www.w3.org/TR/2001/REC-SVG-20010904/DTD/svg10.dtd">
<svg version="1.0" xmlns="http://www.w3.org/2000/svg"
 width="300.000000pt" height="248.000000pt" viewBox="0 0 300.000000 248.000000"
 preserveAspectRatio="xMidYMid meet">
<metadata>
Created by potrace 1.10, written by Peter Selinger 2001-2011
</metadata>
<g transform="translate(0.000000,248.000000) scale(0.100000,-0.100000)"
fill="#000000" stroke="none">
<path d="M10 1235 l0 -1235 1483 0 c1140 0 1486 3 1495 12 9 9 12 297 12 1235
l0 1223 -1495 0 -1495 0 0 -1235z m2960 -5 l0 -1210 -1465 -2 -1465 -3 -2
1205 c-2 663 -2 1208 0 1213 2 4 662 7 1468 7 l1464 0 0 -1210z"/>
<path d="M122 2378 c3 -8 26 -14 61 -16 l57 -3 0 -79 c0 -83 6 -114 21 -104 5
3 9 45 9 95 l0 89 56 0 c40 0 55 3 52 13 -3 8 -41 13 -132 15 -100 2 -127 0
-124 -10z"/>
<path d="M420 2291 c0 -57 4 -103 10 -106 6 -4 52 -6 103 -6 117 0 113 -1 100
12 -8 8 -44 11 -97 10 l-86 -2 0 40 0 41 95 0 c57 0 95 4 95 10 0 12 -4 12
-107 10 l-83 -2 0 31 0 31 96 0 c72 0 95 3 92 13 -3 8 -37 13 -111 15 l-107 3
0 -100z"/>
<path d="M672 2378 c3 -8 27 -14 61 -16 l56 -3 3 -86 c2 -58 7 -88 16 -91 9
-3 12 19 12 87 l0 91 61 0 c54 0 60 2 49 15 -17 20 -264 22 -258 3z"/>
<path d="M994 2371 c-65 -39 -63 -135 2 -178 40 -26 134 -24 171 3 87 65 23
194 -97 194 -27 0 -58 -8 -76 -19z m165 -37 c24 -30 26 -52 10 -87 -14 -32
-49 -47 -103 -47 -84 0 -121 69 -71 129 24 28 32 31 85 31 51 0 61 -3 79 -26z"/>
<path d="M1260 2284 c6 -124 25 -142 25 -24 0 44 1 80 3 80 1 0 49 -39 107
-86 l106 -86 -3 108 c-2 75 -7 109 -15 112 -10 3 -13 -18 -13 -83 l0 -86 -97
77 c-54 42 -102 80 -108 85 -7 5 -8 -28 -5 -97z"/>
<path d="M1652 2283 c2 -68 7 -106 13 -103 6 3 10 23 11 45 0 39 1 40 39 43
34 3 43 -2 91 -49 63 -63 83 -60 25 2 l-41 44 29 3 c39 4 65 34 57 66 -10 39
-54 56 -146 56 l-81 0 3 -107z m195 61 c14 -36 -10 -49 -95 -52 l-80 -3 0 36
0 35 84 0 c69 0 86 -3 91 -16z"/>
<path d="M1930 2292 c0 -77 3 -102 15 -112 14 -12 15 -1 13 95 -2 76 -7 110
-15 113 -10 3 -13 -21 -13 -96z"/>
<path d="M2027 2348 c85 -136 114 -178 120 -178 5 0 36 45 69 99 43 69 59 103
53 112 -12 17 -23 3 -82 -98 -23 -40 -44 -73 -47 -73 -3 0 -30 41 -59 90 -29
50 -59 90 -67 90 -10 0 -7 -12 13 -42z"/>
<path d="M2329 2383 c-3 -35 1 -196 5 -200 3 -3 50 -6 106 -7 80 -1 99 2 95
12 -3 8 -5 14 -5 15 0 1 -40 1 -90 -1 l-90 -3 0 40 0 41 96 0 c70 0 95 3 92
12 -3 9 -31 11 -96 9 l-92 -3 0 32 0 31 95 -3 c81 -3 95 -1 93 12 -3 12 -24
16 -106 18 -56 1 -102 -1 -103 -5z"/>
<path d="M2600 2286 c0 -83 3 -105 15 -110 12 -4 15 4 15 44 l0 50 37 0 c32 0
46 -8 90 -52 63 -62 82 -59 24 3 l-41 44 29 3 c39 4 65 34 57 66 -10 39 -54
56 -146 56 l-80 0 0 -104z m198 51 c7 -36 -16 -47 -97 -47 l-77 0 4 35 4 36
82 -3 c68 -3 81 -6 84 -21z"/>
<path d="M1481 2051 c-41 -41 -34 -172 9 -186 36 -11 59 4 70 47 17 62 3 130
-31 148 -24 13 -26 13 -48 -9z m59 -20 c17 -34 12 -116 -9 -142 -19 -23 -20
-23 -38 -6 -22 22 -25 125 -4 150 18 22 38 21 51 -2z"/>
<path d="M700 1960 l0 -100 105 0 c63 0 105 4 105 10 0 6 -38 10 -95 10 l-95
0 0 44 0 44 95 -3 c54 -2 95 0 95 6 0 5 -43 9 -95 9 l-95 0 0 30 0 30 95 0
c57 0 95 4 95 10 0 6 -42 10 -105 10 l-105 0 0 -100z"/>
<path d="M995 2009 l26 -50 -26 -46 c-14 -25 -23 -48 -20 -51 7 -7 9 -4 33 43
l20 40 17 -42 c10 -24 22 -43 27 -43 5 0 8 3 6 8 -40 90 -41 98 -19 140 23 46
25 52 13 52 -5 0 -17 -18 -27 -40 l-18 -40 -18 40 c-10 22 -23 40 -29 40 -6 0
1 -23 15 -51z"/>
<path d="M1150 1960 c0 -60 4 -100 10 -100 6 0 10 18 10 40 0 37 2 40 29 40
32 0 46 13 56 52 9 36 -23 68 -70 68 l-35 0 0 -100z m78 67 c28 -22 1 -77 -39
-77 -16 0 -19 7 -19 49 0 46 1 49 23 44 12 -3 28 -10 35 -16z"/>
<path d="M1330 1960 l0 -100 45 0 c25 0 45 5 45 10 0 6 -18 10 -41 10 l-40 0
3 90 c2 50 0 90 -4 90 -5 0 -8 -45 -8 -100z"/>
<path d="M1640 1960 c0 -60 4 -100 10 -100 6 0 10 20 10 45 0 25 5 45 10 45 6
0 20 -20 32 -45 12 -25 28 -45 35 -45 9 0 5 13 -12 40 -30 48 -30 52 -5 68 27
16 27 68 1 82 -11 5 -33 10 -50 10 l-31 0 0 -100z m85 60 c11 -18 -15 -50 -40
-50 -22 0 -25 5 -25 34 0 19 6 36 13 39 13 5 43 -8 52 -23z"/>
<path d="M1820 1960 l0 -100 45 0 c25 0 45 5 45 10 0 6 -18 10 -40 10 l-40 0
0 46 0 46 40 -4 c22 -2 40 0 40 4 0 5 -18 8 -40 8 -38 0 -40 2 -40 30 0 28 2
30 40 30 22 0 40 5 40 10 0 6 -20 10 -45 10 l-45 0 0 -100z"/>
<path d="M1980 1960 c0 -60 4 -100 10 -100 6 0 10 20 10 45 0 25 4 45 9 45 5
0 21 -20 35 -45 15 -25 32 -45 38 -45 6 0 5 9 -4 23 -45 68 -44 66 -20 82 28
21 30 70 3 85 -11 5 -33 10 -50 10 l-31 0 0 -100z m79 66 c18 -22 -3 -56 -34
-56 -22 0 -25 4 -25 35 0 30 3 35 24 35 13 0 29 -6 35 -14z"/>
<path d="M2156 2044 c-25 -24 -19 -51 18 -79 19 -14 37 -32 40 -40 7 -20 -20
-45 -50 -45 -13 0 -24 -4 -24 -10 0 -15 43 -12 68 6 32 22 27 53 -14 95 -41
42 -40 69 0 69 14 0 28 5 31 10 10 17 -52 11 -69 -6z"/>
<path d="M1310 1797 c-3 -2 -68 -7 -145 -11 -196 -9 -222 -13 -245 -45 -28
-40 -34 -75 -16 -90 19 -16 69 -17 216 -7 550 39 771 -67 561 -270 -84 -81
-73 -93 109 -114 47 -5 195 -14 330 -20 414 -18 546 -30 613 -56 15 -5 16 14
17 203 l0 208 -43 17 c-181 73 -585 152 -885 173 -106 7 -507 17 -512 12z
m605 -44 c263 -25 609 -95 750 -151 l50 -20 2 -182 1 -182 -31 6 c-42 9 -403
34 -587 41 -277 10 -423 26 -436 47 -3 5 12 26 35 48 52 51 68 76 79 127 8 34
6 47 -9 73 -17 27 -73 69 -104 77 -140 37 -143 37 -650 29 -83 -1 -90 0 -93
19 -6 42 37 65 139 74 154 14 687 10 854 -6z"/>
<path d="M790 1753 c-251 -44 -428 -86 -562 -135 l-58 -20 0 -622 0 -622 189
-2 190 -3 53 30 c56 32 184 66 278 75 30 3 154 10 275 16 366 16 514 31 661
65 171 40 324 115 358 177 19 35 19 35 -2 65 -40 57 -202 112 -532 183 -410
87 -532 127 -580 187 -56 72 -6 120 270 263 84 43 146 82 148 91 3 17 -27 33
-86 44 -61 12 -86 14 -292 20 -238 7 -245 8 -265 38 -17 27 -6 84 27 130 l19
27 -33 -1 c-18 -1 -44 -4 -58 -6z m36 -35 c-35 -86 -30 -122 21 -155 23 -15
60 -19 248 -25 121 -4 234 -7 252 -7 17 0 34 -5 37 -10 3 -5 15 -7 26 -4 12 3
20 0 20 -6 0 -7 5 -9 13 -5 6 4 3 -2 -7 -14 -11 -12 -23 -22 -27 -22 -5 0 -53
-22 -106 -49 -212 -105 -283 -161 -283 -218 0 -54 37 -97 113 -133 75 -35 89
-39 227 -71 47 -10 92 -22 100 -26 8 -3 29 -8 45 -10 139 -18 506 -113 579
-150 43 -21 76 -53 76 -73 0 -41 -110 -109 -257 -159 -70 -23 -253 -57 -358
-66 -38 -3 -88 -7 -110 -10 -22 -2 -119 -7 -215 -10 -161 -5 -379 -20 -427
-29 -75 -15 -164 -42 -199 -62 -41 -23 -52 -24 -218 -24 l-174 0 -6 27 c-7 36
-7 1119 0 1154 4 23 16 30 87 52 110 35 228 64 372 92 142 27 179 30 171 13z"/>
<path d="M645 174 l40 -34 -32 -30 c-18 -16 -33 -32 -33 -35 0 -14 29 -2 50
20 13 14 26 25 29 25 3 0 21 -14 40 -30 19 -17 37 -28 40 -24 3 3 -11 21 -33
38 l-38 33 36 28 c20 15 33 32 30 37 -4 5 -15 1 -28 -9 -50 -44 -50 -44 -86
-13 -19 17 -39 30 -45 30 -5 -1 8 -16 30 -36z"/>
<path d="M1070 162 c0 -68 22 -92 84 -92 59 0 76 18 76 80 0 27 -4 52 -10 55
-6 4 -10 -15 -10 -50 0 -51 -2 -56 -27 -66 -17 -6 -40 -7 -58 -2 -28 8 -30 13
-33 58 -4 69 -22 83 -22 17z"/>
<path d="M1550 198 c-38 -21 -48 -62 -23 -96 18 -24 26 -27 79 -27 54 0 59 2
62 24 2 13 -1 28 -7 34 -8 8 -11 4 -11 -15 0 -56 -112 -43 -118 14 -5 39 34
62 94 55 29 -3 42 -1 36 5 -16 16 -85 20 -112 6z"/>
<path d="M2267 144 c-21 -36 -36 -69 -32 -72 4 -4 12 1 19 11 10 12 27 17 64
17 41 0 54 -4 66 -22 9 -12 16 -17 16 -11 0 15 -80 143 -89 143 -3 0 -23 -30
-44 -66z m73 6 l21 -30 -41 0 -41 0 16 30 c9 17 17 30 20 30 2 0 13 -13 25
-30z"/>
<path d="M2470 142 c0 -45 4 -72 11 -72 6 0 9 14 7 33 l-3 32 63 3 64 3 -4
-32 c-2 -18 2 -34 8 -36 10 -3 12 45 5 130 -1 5 -6 5 -11 2 -6 -3 -7 -17 -4
-31 6 -25 6 -25 -56 -22 -58 3 -64 5 -65 25 -1 13 -5 26 -8 30 -4 3 -7 -26 -7
-65z"/>
<path d="M2716 189 c-55 -43 -17 -119 60 -119 67 0 99 39 78 95 -8 20 -56 45
-87 45 -13 0 -36 -9 -51 -21z m105 -9 c22 -12 26 -62 6 -78 -62 -52 -153 11
-100 70 18 20 64 24 94 8z"/>
<path d="M195 141 c0 -33 3 -63 8 -67 4 -4 7 7 7 24 0 28 3 32 28 32 19 0 39
-11 62 -35 18 -19 36 -32 39 -30 2 3 -8 19 -24 35 -27 28 -28 30 -7 30 27 0
44 29 31 53 -8 13 -24 17 -77 17 l-67 0 0 -59z m131 38 c12 -20 -16 -34 -67
-34 -44 0 -49 2 -49 22 0 21 5 23 54 23 30 0 58 -5 62 -11z"/>
<path d="M412 138 l3 -63 73 -3 c50 -2 72 1 67 8 -3 5 -33 10 -66 10 -57 0
-59 1 -59 26 0 26 1 26 64 22 36 -2 62 0 60 4 -3 4 -32 8 -65 8 -54 0 -59 2
-59 21 0 21 4 21 65 17 36 -3 62 -2 59 3 -3 5 -37 9 -75 9 l-70 0 3 -62z"/>
<path d="M850 135 l0 -65 64 0 c45 0 69 5 80 16 20 19 20 29 2 47 -11 10 -12
17 -4 25 8 8 8 15 -2 27 -9 11 -31 15 -76 15 l-64 0 0 -65z m123 48 c15 -14
-18 -33 -59 -33 -43 0 -61 11 -49 30 7 11 98 14 108 3z m6 -52 c8 -5 11 -16 8
-25 -5 -12 -20 -16 -64 -16 -55 0 -58 1 -59 25 -2 24 1 25 50 25 28 0 57 -4
65 -9z"/>
<path d="M1300 141 c0 -33 5 -63 10 -66 6 -4 10 7 10 24 0 27 3 31 28 31 19 0
39 -11 62 -35 18 -19 36 -32 39 -30 2 3 -8 19 -24 35 -27 28 -28 30 -7 30 27
0 44 29 31 53 -8 14 -24 17 -79 17 l-70 0 0 -59z m136 38 c11 -19 -15 -33 -66
-34 -46 -1 -50 1 -50 22 0 21 4 23 54 23 30 0 58 -5 62 -11z"/>
<path d="M1912 139 c4 -83 23 -89 22 -7 -1 37 -7 64 -13 66 -9 3 -11 -15 -9
-59z"/>
<path d="M2010 134 l0 -66 70 4 c55 3 73 8 84 23 22 29 19 58 -7 83 -19 18
-35 22 -85 22 l-62 0 0 -66z m124 46 c18 -7 26 -17 26 -34 0 -39 -25 -56 -81
-56 l-49 0 0 50 0 50 39 0 c22 0 51 -4 65 -10z"/>
<path d="M1730 64 c0 -14 4 -23 10 -19 6 3 10 15 10 26 0 10 -4 19 -10 19 -5
0 -10 -12 -10 -26z"/>
</g>
</svg>
